Atlantis 2: Milo´s Return

I undervattenstaden Atlantis blomstrar åter livet. Men ovan jord sker nu mystiska 

saker som verkar ha något att göra med staden på havets botten. Innan Atlantis-

experten Milo vet ordet av har han och Kida blivit indragna i tre spännande och 

fartfyllda äventyr!

Tillsammans med sina vänner beger de sig först till Nordsjön, där odjuret Kraken 

sägs hålla hela havet i skräck. I en fiskeby möter de folk som verkar veta mer än de 

vågar berätta... Strax därefter hittas föremål från Atlantis i en ökenstad. En skum 

affärsman verkar ha något med detta att göra, men ligger han även bakom de mystiska 

sandstormarna som sveper genom öknen? Lika mystiskt är det inbrott som sker hemma 

hos professor Whitmore. Någon har stulit ett urgammalt nordiskt spjut, som i orätta 

händer kan leda till Ragnarök - jordens undergång. Klarar gänget som en gång räddade 

Atlantis, även att rädda hela jorden?




Complete name                    : Atlantis.2.Milos.Return.(2003)Swesub.DivX -Lindoff.avi
Format                           : AVI
Format/Info                      : Audio Video Interleave
File size                        : 739 MiB
Duration                         : 1h 17mn
Overall bit rate                 : 1 340 Kbps
Writing application              : Lavf52.31.0

Video
ID                               : 0
Format                           : MPEG-4 Visual
Format profile                   : Simple@L1
Format settings, BVOP            : No
Format settings, QPel            : No
Format settings, GMC             : No warppoints
Format settings, Matrix          : Default (H.263)
Codec ID                         : FMP4
Duration                         : 1h 17mn
Bit rate                         : 1 199 Kbps
Width                            : 720 pixels
Height                           : 576 pixels
Display aspect ratio             : 16:9
Frame rate                       : 25.000 fps
Standard                         : PAL
Color space                      : YUV
Chroma subsampling               : 4:2:0
Bit depth                        : 8 bits
Scan type                        : Progressive
Bits/(Pixel*Frame)               : 0.116
Stream size                      : 661 MiB (89%)
Writing library                  : Lavc52.20.0

Audio
ID                               : 1
Format                           : MPEG Audio
Format version                   : Version 1
Format profile                   : Layer 3
Mode                             : Joint stereo
Mode extension                   : MS Stereo
Codec ID                         : 55
Codec ID/Hint                    : MP3
Duration                         : 1h 17mn
Bit rate mode                    : Constant
Bit rate                         : 128 Kbps
Channel(s)                       : 2 channels
Sampling rate                    : 48.0 KHz
Stream size                      : 70.6 MiB (10%)
Alignment                        : Aligned on interleaves
Interleave, duration             : 24 ms (0.60 video frame)
Writing library                  : LAME3.97